<svg xmlns="http://www.w3.org/2000/svg" viewBox="0 0 1440 700">
  <defs><linearGradient id="a" x1="0" y1="0" x2="1" y2="1"><stop offset="0" stop-color="#13e2c2" stop-opacity=".28"/><stop offset="1" stop-color="#5a67ff" stop-opacity=".28"/></linearGradient></defs>
  <rect width="1440" height="700" fill="#0b1420"/>
  <g stroke="url(#a)" stroke-opacity=".35" stroke-width="2">
    <path d="M80 520L240 440 400 520 560 460 720 520 880 430 1040 520 1200 460 1360 520" fill="none"/>
    <path d="M140 340L300 420 460 360 620 420 780 360 940 440 1100 380 1260 440" fill="none"/>
    <path d="M100 200L260 280 420 240 580 300 740 240 900 260 1060 220 1220 300 1380 220" fill="none"/>
  </g>
  <g fill="url(#a)">
    <circle cx="240" cy="440" r="4"/><circle cx="400" cy="520" r="4"/><circle cx="560" cy="460" r="4"/>
    <circle cx="720" cy="520" r="4"/><circle cx="880" cy="430" r="4"/><circle cx="1040" cy="520" r="4"/>
    <circle cx="1200" cy="460" r="4"/><circle cx="1360" cy="520" r="4"/>
    <circle cx="300" cy="420" r="4"/><circle cx="460" cy="360" r="4"/><circle cx="620" cy="420" r="4"/>
    <circle cx="780" cy="360" r="4"/><circle cx="940" cy="440" r="4"/><circle cx="1100" cy="380" r="4"/><circle cx="1260" cy="440" r="4"/>
    <circle cx="260" cy="280" r="4"/><circle cx="420" cy="240" r="4"/><circle cx="580" cy="300" r="4"/>
    <circle cx="740" cy="240" r="4"/><circle cx="900" cy="260" r="4"/><circle cx="1060" cy="220" r="4"/><circle cx="1220" cy="300" r="4"/>
  </g>
</svg>