<?xml version="1.0" encoding="UTF-8"?>
<svg width="128" height="128" viewBox="0 0 128 128" fill="none" xmlns="http://www.w3.org/2000/svg" role="img" aria-label="Vaubia logo">
  <defs>
    <linearGradient id="g" x1="0" y1="0" x2="1" y2="1">
      <stop offset="0" stop-color="#2EE6D6"/>
      <stop offset="1" stop-color="#5DA6FF"/>
    </linearGradient>
    <filter id="shadow" x="-50%" y="-50%" width="200%" height="200%">
      <feDropShadow dx="0" dy="6" stdDeviation="10" flood-color="#0A2A3A" flood-opacity="0.6"/>
    </filter>
  </defs>
  <circle cx="64" cy="64" r="54" fill="url(#g)" opacity="0.15"/>
  <path d="M64 18c-22 0-40 18-40 40s18 40 40 40 40-18 40-40-18-40-40-40zm0 14c14.4 0 26 11.6 26 26 0 3.9-0.86 7.6-2.4 10.9L64 98 40.4 68.9A26 26 0 0 1 38 58c0-14.4 11.6-26 26-26z" fill="url(#g)" filter="url(#shadow)"/>
  <circle cx="64" cy="58" r="10" fill="#0B3247" opacity="0.9"/>
</svg>
